<?xml version="1.0" encoding="UTF-8"?>
<svg id="Layer_10" data-name="Layer 10" xmlns="http://www.w3.org/2000/svg" viewBox="0 0 144 144">
  <defs>
    <style>
      .cls-1 {
        fill: #231f20;
      }

      .cls-2 {
        fill: #f4f4f4;
      }

      .cls-3 {
        fill: #fe125d;
      }

      .cls-4 {
        fill: #4effb5;
      }

      .cls-5 {
        fill: #1b1b1b;
      }
    </style>
  </defs>
  <path class="cls-2" d="M17.66,118.46l-7.56,4.2L0,111.97l18.59-18.3,14.65,4.96.49-2.86c-1.47-1.9-2.75-3.89-3.81-5.97-5.19-10.11-6.08-21.52-2.51-32.15,3.55-10.55,11.14-19.26,21.38-24.52,6.67-3.43,14.09-5.24,21.45-5.24,3.32,0,6.61.37,9.77,1.1,10.91,2.36,19.69,9.43,25.33,20.41.95,1.85,1.76,3.78,2.44,5.75l24.73-1.11,1.32,32,4.18-.16,5.94,13.21-25.71,8.05-7.28-19.57-7.29,2.71c-4.1,6.44-9.96,11.72-17.08,15.38-6.4,3.29-13.39,5.1-20.27,5.26l-19.88,25.02-28.79-17.5Z"/>
  <polygon class="cls-2" points="18.04 26.86 55.33 7.24 66.33 32.05 34.75 49.88 18.04 26.86"/>
  <path class="cls-5" d="M134.02,92.34l-6.21.24-1.32-31.96-23.45,1.05c-.65-3.17-1.71-6.32-3.29-9.39-4.74-9.24-12.01-15.17-21.14-17.15-8.82-2.03-18.49-.73-26.94,3.61-18.12,9.3-25.28,30.43-16.15,48.2,1.35,2.63,3.03,4.96,4.91,7.04l-2.24,12.98-17.95-6.08-11.43,11.25,2.52,2.66,6.49-3.6,27.17,16.51,18.35-23.09c6.65.36,13.68-1.07,20.4-4.52,6.99-3.59,12.29-8.83,15.69-14.91l15.25-5.67,7.39,19.87,13.25-4.15-1.3-2.88Z"/>
  <g>
    <path class="cls-3" d="M83.76,58.57c-4.51-8.79-15.02-12.16-24.14-7.47-9.94,5.1-13.97,17.03-9.07,26.57,4.71,9.16,15.01,12.48,24.27,7.72,10.35-5.31,14.1-16.78,8.95-26.82Z"/>
    <path class="cls-4" d="M67.11,68.83l17.28-8.87c-.2-.46-.39-.93-.63-1.38-4.51-8.79-15.02-12.16-24.14-7.47-.43.22-.83.47-1.24.72l8.74,17.01Z"/>
  </g>
  <polygon class="cls-1" points="58.27 29.38 36.54 41.64 27.4 29.04 52.31 15.94 58.27 29.38"/>
</svg>