<?xml version="1.0" encoding="UTF-8"?>
<svg id="Layer_5" data-name="Layer 5" xmlns="http://www.w3.org/2000/svg" viewBox="0 0 144 144">
  <defs>
    <style>
      .cls-1 {
        fill: #231f20;
      }

      .cls-2 {
        fill: #fe125d;
      }

      .cls-3 {
        fill: #4effb5;
      }

      .cls-4 {
        fill: #1b1b1b;
      }
    </style>
  </defs>
  <path class="cls-4" d="M114.15,108.82l5.61-25.01-18.91-4.17c1.29-3.32,1.98-6.96,1.94-10.82-.1-8.32-3.19-15.17-9.03-19.85-5.6-4.61-13-7.13-20.6-7.04-7.75.09-14.65,3-19.77,7.72l-.12-5.53h-6.77l-.25,5.7-12.72.54-1.36-7.15-5.45,1.02-.79,19.41,7.38-2.5-.25-5.64,13.47-.27.91,2.25c-2.01,3.94-3.13,8.43-3.07,13.23.08,6.32,2.36,11.98,6.17,16.46l-3.13,11.22-22.35,2.37-2.45,10.77,2.78.95,3.26-4.97,36.34,2.97,9.88-13.15c1.35-.04,2.66-.18,3.94-.38l-.07.07,27.98-1.06,1.6,16.91,11.11-.47-.41-2.5-4.86-1.1Z"/>
  <g>
    <path class="cls-2" d="M89.08,67.62c-.1-7.92-6.42-14.09-14.64-13.99-8.95.11-16.1,7.22-16,15.81.1,8.25,6.31,14.31,14.64,14.21,9.32-.11,16.11-7,16-16.03Z"/>
    <path class="cls-3" d="M73.47,69.03l15.56-.19c.02-.4.05-.81.04-1.22-.1-7.92-6.42-14.09-14.64-13.99-.39,0-.77.04-1.15.07l.18,15.32Z"/>
  </g>
  <polygon class="cls-1" points="80.89 37.33 62.08 38.33 60.12 26.03 81.37 25.56 80.89 37.33"/>
  <polygon class="cls-4" points="97.71 37.61 96.88 49.46 101.45 50.71 101.87 46.14 111.08 45.93 112.74 50.92 116.69 50.71 116.28 35.32 111.08 35.32 110.87 41.77 102.5 41.91 101.68 37.43 97.71 37.61"/>
</svg>